<svg xmlns="http://www.w3.org/2000/svg" viewBox="0 0 1200 800"><rect width="1200" height="800" fill="#dce8df"/><ellipse cx="600" cy="415" rx="440" ry="210" fill="#d2b3a4"/><rect x="225" y="315" width="775" height="175" rx="70" fill="#72655e"/><path d="M0 25Q45 0 95 18Q120 70 105 145Q65 170 15 145Z" transform="translate(265 315)" fill="#f8f4e9" stroke="#b2ad9d" stroke-width="5"/><path d="M0 25Q45 0 95 18Q120 70 105 145Q65 170 15 145Z" transform="translate(405 315)" fill="#f8f4e9" stroke="#b2ad9d" stroke-width="5"/><path d="M0 25Q45 0 95 18Q120 70 105 145Q65 170 15 145Z" transform="translate(545 315)" fill="#f8f4e9" stroke="#b2ad9d" stroke-width="5"/><path d="M0 25Q45 0 95 18Q120 70 105 145Q65 170 15 145Z" transform="translate(685 315)" fill="#f8f4e9" stroke="#b2ad9d" stroke-width="5"/><path d="M0 25Q45 0 95 18Q120 70 105 145Q65 170 15 145Z" transform="translate(825 315)" fill="#f8f4e9" stroke="#b2ad9d" stroke-width="5"/><path d="M200 650H1000" stroke="#bbc9bd" stroke-width="3"/></svg>
